<svg xmlns="http://www.w3.org/2000/svg" xmlns:xlink="http://www.w3.org/1999/xlink" width="500" zoomAndPan="magnify" viewBox="0 0 375 374.999991" height="500" preserveAspectRatio="xMidYMid meet" version="1.0"><defs><g/><clipPath id="ffca3fc998"><path d="M 191 113.75 L 263.367188 113.75 L 263.367188 143 L 191 143 Z M 191 113.75 " clip-rule="nonzero"/></clipPath><clipPath id="f2463aacc5"><path d="M 113.367188 113.75 L 185 113.75 L 185 143 L 113.367188 143 Z M 113.367188 113.75 " clip-rule="nonzero"/></clipPath></defs><g clip-path="url(#ffca3fc998)"><path fill="#e13939" d="M 263.199219 142.039062 L 248.675781 113.5625 L 257.019531 136.246094 C 257.019531 136.246094 211.679688 132.4375 191.90625 113.5625 C 191.90625 113.5625 199.167969 135.675781 263.199219 142.039062 Z M 263.199219 142.039062 " fill-opacity="1" fill-rule="nonzero"/></g><path fill="#e13939" d="M 239.886719 152.480469 L 239.886719 142.039062 C 207.359375 137.867188 189.417969 119.261719 189.417969 119.261719 C 202.53125 142.398438 239.886719 152.480469 239.886719 152.480469 Z M 239.886719 152.480469 " fill-opacity="1" fill-rule="nonzero"/><path fill="#e13939" d="M 220.773438 158 L 220.773438 148.757812 C 200.097656 140.417969 189.449219 124.8125 189.449219 124.8125 C 196.738281 146.386719 220.773438 158 220.773438 158 Z M 220.773438 158 " fill-opacity="1" fill-rule="nonzero"/><g clip-path="url(#f2463aacc5)"><path fill="#e13939" d="M 113.535156 142.039062 C 177.566406 135.675781 184.828125 113.5625 184.828125 113.5625 C 165.054688 132.4375 119.714844 136.246094 119.714844 136.246094 L 128.058594 113.5625 Z M 113.535156 142.039062 " fill-opacity="1" fill-rule="nonzero"/></g><path fill="#e13939" d="M 136.820312 152.480469 C 136.820312 152.480469 174.175781 142.425781 187.285156 119.292969 C 187.285156 119.292969 169.34375 137.898438 136.820312 142.066406 Z M 136.820312 152.480469 " fill-opacity="1" fill-rule="nonzero"/><path fill="#e13939" d="M 155.960938 148.757812 L 155.960938 158 C 155.960938 158 179.996094 146.386719 187.285156 124.8125 C 187.285156 124.8125 176.636719 140.417969 155.960938 148.757812 Z M 155.960938 148.757812 " fill-opacity="1" fill-rule="nonzero"/><g fill="#8c52ff" fill-opacity="1"><g transform="translate(157.050769, 170.749983)"><g><path d="M 5.796875 4.8125 C 5.492188 4.8125 5.320312 4.675781 5.28125 4.40625 C 5.195312 4.21875 5.164062 4.023438 5.1875 3.828125 C 5.207031 3.628906 5.238281 3.4375 5.28125 3.25 L 6.671875 -5.15625 C 7.285156 -8.789062 7.957031 -12.394531 8.6875 -15.96875 C 9.425781 -19.550781 10.242188 -23.140625 11.140625 -26.734375 C 11.171875 -26.890625 11.207031 -27.050781 11.25 -27.21875 C 11.289062 -27.394531 11.332031 -27.601562 11.375 -27.84375 C 11.488281 -28.269531 11.332031 -28.484375 10.90625 -28.484375 L 10.734375 -28.484375 C 10.035156 -28.359375 9.328125 -28.226562 8.609375 -28.09375 C 7.898438 -27.957031 7.195312 -27.796875 6.5 -27.609375 C 5.644531 -27.453125 4.8125 -27.296875 4 -27.140625 C 3.1875 -26.984375 2.375 -26.8125 1.5625 -26.625 C 0.75 -26.425781 -0.0625 -26.238281 -0.875 -26.0625 C -1.6875 -25.894531 -2.515625 -25.710938 -3.359375 -25.515625 C -3.441406 -25.484375 -3.53125 -25.46875 -3.625 -25.46875 C -3.71875 -25.46875 -3.804688 -25.445312 -3.890625 -25.40625 C -4.003906 -25.363281 -4.175781 -25.34375 -4.40625 -25.34375 C -4.5625 -25.34375 -4.734375 -25.367188 -4.921875 -25.421875 C -5.117188 -25.484375 -5.21875 -25.613281 -5.21875 -25.8125 C -5.175781 -25.851562 -5.15625 -25.945312 -5.15625 -26.09375 C -5.15625 -26.175781 -5.117188 -26.253906 -5.046875 -26.328125 C -4.929688 -26.410156 -4.816406 -26.488281 -4.703125 -26.5625 C -4.585938 -26.644531 -4.453125 -26.703125 -4.296875 -26.734375 C -4.140625 -26.773438 -3.992188 -26.804688 -3.859375 -26.828125 C -3.722656 -26.847656 -3.578125 -26.875 -3.421875 -26.90625 L 5.453125 -28.828125 C 6.335938 -29.015625 7.234375 -29.207031 8.140625 -29.40625 C 9.054688 -29.601562 9.957031 -29.773438 10.84375 -29.921875 C 11.226562 -30.003906 11.535156 -30.128906 11.765625 -30.296875 C 12.003906 -30.472656 12.160156 -30.773438 12.234375 -31.203125 C 12.316406 -31.515625 12.394531 -31.820312 12.46875 -32.125 C 12.550781 -32.4375 12.628906 -32.75 12.703125 -33.0625 C 12.816406 -33.488281 13.085938 -33.703125 13.515625 -33.703125 C 13.859375 -33.546875 13.992188 -33.21875 13.921875 -32.71875 L 13.6875 -31.4375 C 13.613281 -31.125 13.625 -30.910156 13.71875 -30.796875 C 13.8125 -30.679688 14.050781 -30.625 14.4375 -30.625 L 14.671875 -30.625 C 14.867188 -30.664062 15.0625 -30.703125 15.25 -30.734375 C 15.445312 -30.773438 15.660156 -30.816406 15.890625 -30.859375 C 16.117188 -30.890625 16.347656 -30.914062 16.578125 -30.9375 C 16.816406 -30.957031 17.070312 -30.988281 17.34375 -31.03125 C 18.34375 -31.101562 19.335938 -31.195312 20.328125 -31.3125 C 21.316406 -31.4375 22.3125 -31.554688 23.3125 -31.671875 C 24.320312 -31.742188 25.316406 -31.835938 26.296875 -31.953125 C 27.285156 -32.066406 28.265625 -32.164062 29.234375 -32.25 L 30.5625 -32.25 C 30.875 -32.207031 31.050781 -32.03125 31.09375 -31.71875 C 31.125 -31.375 30.988281 -31.125 30.6875 -30.96875 L 29.921875 -30.796875 C 29.265625 -30.753906 28.585938 -30.703125 27.890625 -30.640625 C 27.203125 -30.585938 26.507812 -30.523438 25.8125 -30.453125 C 25.113281 -30.410156 24.414062 -30.34375 23.71875 -30.25 C 23.019531 -30.15625 22.328125 -30.066406 21.640625 -29.984375 C 21.015625 -29.941406 20.398438 -29.882812 19.796875 -29.8125 C 19.203125 -29.738281 18.597656 -29.660156 17.984375 -29.578125 C 17.359375 -29.503906 16.738281 -29.425781 16.125 -29.34375 C 15.507812 -29.269531 14.890625 -29.191406 14.265625 -29.109375 C 13.453125 -29.035156 12.96875 -28.570312 12.8125 -27.71875 C 11.582031 -22.539062 10.472656 -17.378906 9.484375 -12.234375 C 8.492188 -7.097656 7.59375 -1.898438 6.78125 3.359375 C 6.75 3.597656 6.710938 3.820312 6.671875 4.03125 C 6.628906 4.238281 6.515625 4.421875 6.328125 4.578125 C 6.171875 4.734375 5.992188 4.8125 5.796875 4.8125 Z M 5.796875 4.8125 "/></g></g></g><g fill="#8c52ff" fill-opacity="1"><g transform="translate(173.057711, 170.749983)"><g><path d="M 12.875 8.578125 C 12.6875 8.578125 12.570312 8.5625 12.53125 8.53125 C 12.21875 8.414062 12.0625 8.160156 12.0625 7.765625 C 12.0625 7.578125 12.082031 7.460938 12.125 7.421875 C 12.625 6.222656 13.03125 4.96875 13.34375 3.65625 C 13.457031 3 13.570312 2.34375 13.6875 1.6875 C 13.800781 1.03125 13.9375 0.367188 14.09375 -0.296875 C 14.363281 -1.523438 14.613281 -2.75 14.84375 -3.96875 C 15.082031 -5.1875 15.335938 -6.394531 15.609375 -7.59375 C 15.878906 -8.832031 16.144531 -10.0625 16.40625 -11.28125 C 16.675781 -12.5 16.96875 -13.707031 17.28125 -14.90625 L 17.515625 -16.015625 C 17.515625 -16.242188 17.445312 -16.375 17.3125 -16.40625 C 17.175781 -16.445312 17.007812 -16.46875 16.8125 -16.46875 L 16.640625 -16.46875 C 15.140625 -16.351562 13.632812 -16.238281 12.125 -16.125 C 10.613281 -16.007812 9.101562 -15.875 7.59375 -15.71875 C 7.363281 -15.71875 7.191406 -15.695312 7.078125 -15.65625 C 6.992188 -15.625 6.894531 -15.609375 6.78125 -15.609375 C 6.664062 -15.609375 6.570312 -15.585938 6.5 -15.546875 C 5.875 -15.503906 5.503906 -15.132812 5.390625 -14.4375 C 5.234375 -13.707031 5.078125 -12.992188 4.921875 -12.296875 C 4.773438 -11.597656 4.625 -10.898438 4.46875 -10.203125 C 4.3125 -9.472656 4.15625 -8.757812 4 -8.0625 C 3.84375 -7.363281 3.6875 -6.648438 3.53125 -5.921875 C 3.34375 -5.066406 3.171875 -4.222656 3.015625 -3.390625 C 2.859375 -2.554688 2.703125 -1.71875 2.546875 -0.875 C 2.472656 -0.5625 2.425781 -0.253906 2.40625 0.046875 C 2.382812 0.359375 2.429688 0.671875 2.546875 0.984375 C 2.742188 1.453125 2.773438 1.914062 2.640625 2.375 C 2.503906 2.84375 2.335938 3.289062 2.140625 3.71875 C 1.984375 4.0625 1.753906 4.234375 1.453125 4.234375 C 1.410156 4.234375 1.390625 4.234375 1.390625 4.234375 C 1.390625 4.234375 1.367188 4.234375 1.328125 4.234375 C 1.296875 4.191406 1.257812 4.171875 1.21875 4.171875 C 0.832031 4.015625 0.640625 3.785156 0.640625 3.484375 C 0.640625 1.628906 0.8125 -0.195312 1.15625 -2 C 1.507812 -3.800781 1.894531 -5.585938 2.3125 -7.359375 L 3.765625 -14.203125 C 3.878906 -14.671875 3.765625 -14.90625 3.421875 -14.90625 C 3.222656 -14.90625 3.085938 -14.882812 3.015625 -14.84375 C 2.859375 -14.8125 2.710938 -14.773438 2.578125 -14.734375 C 2.441406 -14.691406 2.296875 -14.648438 2.140625 -14.609375 C 1.984375 -14.578125 1.828125 -14.539062 1.671875 -14.5 C 1.523438 -14.457031 1.375 -14.421875 1.21875 -14.390625 C 1.144531 -14.347656 0.953125 -14.328125 0.640625 -14.328125 C 0.253906 -14.328125 0.0390625 -14.519531 0 -14.90625 C -0.0703125 -15.21875 0.0234375 -15.429688 0.296875 -15.546875 C 0.441406 -15.617188 0.582031 -15.679688 0.71875 -15.734375 C 0.851562 -15.796875 1 -15.847656 1.15625 -15.890625 C 1.3125 -15.929688 1.457031 -15.976562 1.59375 -16.03125 C 1.726562 -16.09375 1.875 -16.144531 2.03125 -16.1875 C 2.488281 -16.375 2.914062 -16.46875 3.3125 -16.46875 C 3.726562 -16.394531 4.054688 -16.570312 4.296875 -17 C 4.484375 -17.300781 4.625 -17.644531 4.71875 -18.03125 C 4.820312 -18.425781 4.910156 -18.796875 4.984375 -19.140625 C 5.410156 -20.804688 5.84375 -22.457031 6.28125 -24.09375 C 6.726562 -25.738281 7.242188 -27.375 7.828125 -29 C 7.910156 -29.15625 7.976562 -29.289062 8.03125 -29.40625 C 8.09375 -29.519531 8.140625 -29.65625 8.171875 -29.8125 C 8.210938 -29.925781 8.257812 -30.039062 8.3125 -30.15625 C 8.375 -30.269531 8.425781 -30.40625 8.46875 -30.5625 C 8.664062 -30.789062 8.878906 -30.90625 9.109375 -30.90625 C 9.296875 -30.90625 9.410156 -30.890625 9.453125 -30.859375 C 9.796875 -30.660156 9.910156 -30.390625 9.796875 -30.046875 C 9.765625 -29.960938 9.738281 -29.863281 9.71875 -29.75 C 9.695312 -29.632812 9.664062 -29.539062 9.625 -29.46875 C 9.582031 -29.351562 9.539062 -29.234375 9.5 -29.109375 C 9.46875 -28.992188 9.429688 -28.898438 9.390625 -28.828125 C 8.773438 -27.128906 8.222656 -25.4375 7.734375 -23.75 C 7.253906 -22.070312 6.800781 -20.363281 6.375 -18.625 L 6.203125 -17.859375 C 6.160156 -17.398438 6.375 -17.171875 6.84375 -17.171875 C 6.957031 -17.171875 7.054688 -17.1875 7.140625 -17.21875 C 7.171875 -17.21875 7.210938 -17.21875 7.265625 -17.21875 C 7.328125 -17.21875 7.378906 -17.21875 7.421875 -17.21875 C 8.191406 -17.300781 8.972656 -17.378906 9.765625 -17.453125 C 10.566406 -17.535156 11.351562 -17.59375 12.125 -17.625 C 12.894531 -17.707031 13.675781 -17.773438 14.46875 -17.828125 C 15.257812 -17.890625 16.0625 -17.957031 16.875 -18.03125 C 17.457031 -18.113281 17.816406 -18.210938 17.953125 -18.328125 C 18.085938 -18.441406 18.234375 -18.769531 18.390625 -19.3125 C 19.203125 -22.207031 20.03125 -25.054688 20.875 -27.859375 C 21.726562 -30.671875 22.71875 -33.46875 23.84375 -36.25 C 23.914062 -36.476562 24.007812 -36.707031 24.125 -36.9375 C 24.238281 -37.175781 24.414062 -37.375 24.65625 -37.53125 C 24.769531 -37.644531 24.941406 -37.703125 25.171875 -37.703125 C 25.441406 -37.617188 25.597656 -37.441406 25.640625 -37.171875 C 25.710938 -36.941406 25.710938 -36.734375 25.640625 -36.546875 C 25.484375 -36.234375 25.382812 -36.019531 25.34375 -35.90625 C 24.570312 -34.125 23.882812 -32.34375 23.28125 -30.5625 C 22.6875 -28.78125 22.117188 -26.984375 21.578125 -25.171875 L 20.015625 -19.484375 C 19.816406 -18.828125 19.96875 -18.5 20.46875 -18.5 L 20.828125 -18.5 C 21.285156 -18.582031 21.742188 -18.660156 22.203125 -18.734375 C 22.671875 -18.804688 23.140625 -18.882812 23.609375 -18.96875 C 23.722656 -18.96875 23.800781 -18.988281 23.84375 -19.03125 C 23.875 -19.03125 23.898438 -19.03125 23.921875 -19.03125 C 23.941406 -19.03125 23.972656 -19.03125 24.015625 -19.03125 C 24.472656 -19.101562 24.742188 -18.90625 24.828125 -18.4375 C 24.859375 -18.050781 24.722656 -17.800781 24.421875 -17.6875 C 24.035156 -17.53125 23.609375 -17.414062 23.140625 -17.34375 C 22.910156 -17.300781 22.675781 -17.269531 22.4375 -17.25 C 22.207031 -17.226562 21.976562 -17.203125 21.75 -17.171875 C 21.519531 -17.128906 21.285156 -17.085938 21.046875 -17.046875 C 20.816406 -17.015625 20.585938 -16.976562 20.359375 -16.9375 C 19.617188 -16.894531 19.191406 -16.507812 19.078125 -15.78125 C 18.921875 -15.15625 18.765625 -14.523438 18.609375 -13.890625 C 18.460938 -13.253906 18.3125 -12.609375 18.15625 -11.953125 C 18 -11.296875 17.84375 -10.644531 17.6875 -10 C 17.53125 -9.363281 17.375 -8.71875 17.21875 -8.0625 C 16.988281 -6.976562 16.757812 -5.90625 16.53125 -4.84375 C 16.300781 -3.78125 16.085938 -2.707031 15.890625 -1.625 C 15.703125 -0.539062 15.488281 0.519531 15.25 1.5625 C 15.019531 2.601562 14.789062 3.664062 14.5625 4.75 C 14.476562 5.21875 14.367188 5.679688 14.234375 6.140625 C 14.097656 6.609375 13.953125 7.054688 13.796875 7.484375 C 13.765625 7.554688 13.738281 7.628906 13.71875 7.703125 C 13.695312 7.785156 13.664062 7.867188 13.625 7.953125 C 13.59375 8.023438 13.554688 8.085938 13.515625 8.140625 C 13.472656 8.203125 13.429688 8.273438 13.390625 8.359375 C 13.242188 8.503906 13.070312 8.578125 12.875 8.578125 Z M 12.875 8.578125 "/></g></g></g><g fill="#8c52ff" fill-opacity="1"><g transform="translate(195.850197, 170.749983)"><g><path d="M 4.984375 4 C 3.742188 4 2.679688 3.773438 1.796875 3.328125 C 0.910156 2.890625 0.347656 1.992188 0.109375 0.640625 C -0.00390625 -0.015625 -0.0390625 -0.679688 0 -1.359375 C 0.0390625 -2.035156 0.140625 -2.703125 0.296875 -3.359375 C 0.367188 -3.785156 0.460938 -4.222656 0.578125 -4.671875 C 0.691406 -5.117188 0.789062 -5.550781 0.875 -5.96875 C 0.945312 -6.394531 1.039062 -6.820312 1.15625 -7.25 C 1.269531 -7.675781 1.367188 -8.101562 1.453125 -8.53125 C 1.523438 -8.832031 1.53125 -9.019531 1.46875 -9.09375 C 1.414062 -9.175781 1.234375 -9.296875 0.921875 -9.453125 C 0.890625 -9.492188 0.820312 -9.53125 0.71875 -9.5625 C 0.625 -9.601562 0.519531 -9.644531 0.40625 -9.6875 C 0.289062 -9.757812 0.234375 -9.914062 0.234375 -10.15625 C 0.234375 -10.382812 0.289062 -10.519531 0.40625 -10.5625 C 0.632812 -10.789062 0.847656 -10.90625 1.046875 -10.90625 C 1.585938 -10.976562 1.960938 -11.1875 2.171875 -11.53125 C 2.390625 -11.882812 2.554688 -12.296875 2.671875 -12.765625 C 3.210938 -14.503906 3.835938 -16.210938 4.546875 -17.890625 C 5.265625 -19.578125 6.007812 -21.269531 6.78125 -22.96875 L 8.9375 -27.375 C 9.007812 -27.570312 9.101562 -27.765625 9.21875 -27.953125 C 9.332031 -28.148438 9.390625 -28.398438 9.390625 -28.703125 C 9.160156 -28.785156 8.96875 -28.828125 8.8125 -28.828125 C 8.738281 -28.828125 8.671875 -28.828125 8.609375 -28.828125 C 8.554688 -28.828125 8.488281 -28.828125 8.40625 -28.828125 C 8.289062 -28.785156 8.15625 -28.765625 8 -28.765625 C 7.539062 -28.765625 7.3125 -28.921875 7.3125 -29.234375 C 7.3125 -29.578125 7.503906 -29.804688 7.890625 -29.921875 C 7.960938 -29.960938 8.035156 -29.984375 8.109375 -29.984375 C 8.191406 -29.984375 8.273438 -30.003906 8.359375 -30.046875 C 8.429688 -30.085938 8.492188 -30.109375 8.546875 -30.109375 C 8.609375 -30.109375 8.679688 -30.125 8.765625 -30.15625 C 9.148438 -30.238281 9.523438 -30.328125 9.890625 -30.421875 C 10.253906 -30.515625 10.613281 -30.660156 10.96875 -30.859375 C 11.113281 -31.015625 11.285156 -31.09375 11.484375 -31.09375 C 12.609375 -31.09375 13.632812 -31.226562 14.5625 -31.5 C 15.0625 -31.613281 15.570312 -31.71875 16.09375 -31.8125 C 16.613281 -31.90625 17.125 -31.992188 17.625 -32.078125 C 18.25 -32.148438 18.859375 -32.242188 19.453125 -32.359375 C 20.054688 -32.472656 20.664062 -32.570312 21.28125 -32.65625 C 22.519531 -32.84375 23.738281 -32.957031 24.9375 -33 L 25.46875 -33 C 25.539062 -33 25.632812 -33 25.75 -33 C 25.863281 -33 25.976562 -33 26.09375 -33 C 26.175781 -33 26.273438 -33 26.390625 -33 C 26.503906 -33 26.601562 -32.976562 26.6875 -32.9375 C 27.1875 -32.863281 27.394531 -32.59375 27.3125 -32.125 C 27.238281 -31.625 26.96875 -31.414062 26.5 -31.5 C 26.382812 -31.5 26.269531 -31.503906 26.15625 -31.515625 C 26.039062 -31.535156 25.925781 -31.566406 25.8125 -31.609375 C 25.65625 -31.648438 25.519531 -31.671875 25.40625 -31.671875 C 25.289062 -31.671875 25.15625 -31.671875 25 -31.671875 L 24.828125 -31.671875 C 24.628906 -31.628906 24.421875 -31.597656 24.203125 -31.578125 C 23.992188 -31.554688 23.796875 -31.546875 23.609375 -31.546875 C 23.410156 -31.546875 23.203125 -31.535156 22.984375 -31.515625 C 22.773438 -31.503906 22.578125 -31.476562 22.390625 -31.4375 L 13.390625 -29.921875 C 13.359375 -29.890625 13.3125 -29.875 13.25 -29.875 C 13.195312 -29.875 13.128906 -29.851562 13.046875 -29.8125 C 12.972656 -29.769531 12.835938 -29.75 12.640625 -29.75 C 12.179688 -29.71875 11.816406 -29.570312 11.546875 -29.3125 C 11.273438 -29.0625 11.039062 -28.722656 10.84375 -28.296875 L 7.890625 -22.15625 C 7.234375 -20.726562 6.625 -19.296875 6.0625 -17.859375 C 5.5 -16.429688 4.96875 -14.984375 4.46875 -13.515625 C 4.425781 -13.398438 4.382812 -13.28125 4.34375 -13.15625 C 4.3125 -13.039062 4.253906 -12.910156 4.171875 -12.765625 C 4.054688 -12.453125 4.078125 -12.21875 4.234375 -12.0625 C 4.347656 -11.90625 4.503906 -11.828125 4.703125 -11.828125 C 4.859375 -11.828125 5.050781 -11.867188 5.28125 -11.953125 C 5.351562 -11.984375 5.4375 -12.007812 5.53125 -12.03125 C 5.632812 -12.050781 5.722656 -12.082031 5.796875 -12.125 C 6.453125 -12.28125 7.128906 -12.441406 7.828125 -12.609375 C 8.523438 -12.785156 9.203125 -12.953125 9.859375 -13.109375 C 10.515625 -13.296875 11.191406 -13.46875 11.890625 -13.625 C 12.585938 -13.78125 13.265625 -13.9375 13.921875 -14.09375 C 13.960938 -14.132812 14.054688 -14.15625 14.203125 -14.15625 C 14.242188 -14.15625 14.285156 -14.15625 14.328125 -14.15625 C 14.367188 -14.15625 14.40625 -14.15625 14.4375 -14.15625 C 14.820312 -14.15625 15.054688 -14 15.140625 -13.6875 C 15.253906 -13.300781 14.960938 -12.953125 14.265625 -12.640625 L 13.34375 -12.46875 C 11.875 -12.082031 10.40625 -11.703125 8.9375 -11.328125 C 7.46875 -10.960938 6 -10.609375 4.53125 -10.265625 C 4.101562 -10.191406 3.769531 -10.054688 3.53125 -9.859375 C 3.300781 -9.660156 3.148438 -9.351562 3.078125 -8.9375 C 2.960938 -8.394531 2.84375 -7.859375 2.71875 -7.328125 C 2.601562 -6.804688 2.488281 -6.273438 2.375 -5.734375 C 2.21875 -5.203125 2.082031 -4.65625 1.96875 -4.09375 C 1.851562 -3.53125 1.738281 -2.976562 1.625 -2.4375 C 1.582031 -2.28125 1.550781 -2.125 1.53125 -1.96875 C 1.519531 -1.8125 1.515625 -1.640625 1.515625 -1.453125 C 1.515625 -1.296875 1.515625 -1.128906 1.515625 -0.953125 C 1.515625 -0.785156 1.515625 -0.601562 1.515625 -0.40625 C 1.585938 1.53125 2.59375 2.5 4.53125 2.5 C 5.414062 2.5 6.285156 2.378906 7.140625 2.140625 C 7.753906 2.023438 8.359375 1.878906 8.953125 1.703125 C 9.554688 1.535156 10.164062 1.351562 10.78125 1.15625 C 12.25 0.613281 13.726562 0.0546875 15.21875 -0.515625 C 16.707031 -1.097656 18.1875 -1.679688 19.65625 -2.265625 C 19.78125 -2.296875 19.890625 -2.320312 19.984375 -2.34375 C 20.078125 -2.363281 20.144531 -2.375 20.1875 -2.375 C 20.457031 -2.375 20.648438 -2.238281 20.765625 -1.96875 C 20.835938 -1.695312 20.859375 -1.523438 20.828125 -1.453125 C 20.671875 -1.066406 20.398438 -0.816406 20.015625 -0.703125 C 18.929688 -0.304688 17.863281 0.09375 16.8125 0.5 C 15.769531 0.90625 14.726562 1.316406 13.6875 1.734375 C 12.644531 2.117188 11.59375 2.476562 10.53125 2.8125 C 9.46875 3.144531 8.375 3.445312 7.25 3.71875 C 6.90625 3.789062 6.546875 3.84375 6.171875 3.875 C 5.804688 3.914062 5.410156 3.957031 4.984375 4 Z M 4.984375 4 "/></g></g></g><g fill="#e13939" fill-opacity="1"><g transform="translate(138.533827, 198.374987)"><g><path d="M 4.9375 -11.421875 L 10.296875 -11.421875 C 11.640625 -11.421875 12.738281 -11.875 13.59375 -12.78125 C 14.476562 -13.707031 14.921875 -14.851562 14.921875 -16.21875 C 14.921875 -17.550781 14.503906 -18.660156 13.671875 -19.546875 C 12.828125 -20.410156 11.703125 -20.84375 10.296875 -20.84375 L 4.9375 -20.84375 Z M 17.3125 -16.15625 C 17.3125 -14.132812 16.59375 -12.457031 15.15625 -11.125 C 13.894531 -9.9375 12.367188 -9.289062 10.578125 -9.1875 L 17.6875 0 L 14.484375 0 L 7.71875 -9.140625 L 4.9375 -9.140625 L 4.9375 0 L 2.546875 0 L 2.546875 -23.125 L 9.96875 -23.125 C 12.03125 -23.125 13.757812 -22.476562 15.15625 -21.1875 C 16.59375 -19.820312 17.3125 -18.144531 17.3125 -16.15625 Z M 17.3125 -16.15625 "/></g></g></g><g fill="#e13939" fill-opacity="1"><g transform="translate(159.747705, 198.374987)"><g><path d="M 6.296875 -8.5 L 14.6875 -8.5 L 10.5 -19.140625 Z M 20.640625 0 L 18.046875 0 L 15.578125 -6.296875 L 5.40625 -6.296875 L 2.921875 0 L 0.34375 0 L 10.5 -24.71875 Z M 20.640625 0 "/></g></g></g><g fill="#e13939" fill-opacity="1"><g transform="translate(183.443302, 198.374987)"><g><path d="M 4.9375 -17.03125 L 4.9375 0 L 2.546875 0 L 2.546875 -24.578125 L 15.53125 -6.125 L 15.53125 -23.125 L 17.921875 -23.125 L 17.921875 1.421875 Z M 4.9375 -17.03125 "/></g></g></g><g fill="#e13939" fill-opacity="1"><g transform="translate(206.62895, 198.374987)"><g><path d="M 20.5 -11.5625 C 20.5 -9.882812 20.191406 -8.34375 19.578125 -6.9375 C 18.941406 -5.507812 18.09375 -4.285156 17.03125 -3.265625 C 15.96875 -2.242188 14.710938 -1.453125 13.265625 -0.890625 C 11.804688 -0.296875 10.253906 0 8.609375 0 L 2.546875 0 L 2.546875 -23.125 L 8.609375 -23.125 C 10.253906 -23.125 11.804688 -22.835938 13.265625 -22.265625 C 14.710938 -21.679688 15.96875 -20.878906 17.03125 -19.859375 C 18.09375 -18.835938 18.941406 -17.625 19.578125 -16.21875 C 20.191406 -14.789062 20.5 -13.238281 20.5 -11.5625 Z M 18.1875 -11.5625 C 18.1875 -14.1875 17.257812 -16.382812 15.40625 -18.15625 C 13.59375 -19.875 11.347656 -20.734375 8.671875 -20.734375 L 4.9375 -20.734375 L 4.9375 -2.375 L 8.671875 -2.375 C 11.347656 -2.375 13.59375 -3.238281 15.40625 -4.96875 C 17.257812 -6.726562 18.1875 -8.925781 18.1875 -11.5625 Z M 18.1875 -11.5625 "/></g></g></g><g fill="#e13939" fill-opacity="1"><g transform="translate(231.378422, 198.374987)"><g><path d="M 22.921875 -11.625 C 22.921875 -14.226562 21.988281 -16.460938 20.125 -18.328125 C 18.269531 -20.179688 16.023438 -21.109375 13.390625 -21.109375 C 10.785156 -21.109375 8.554688 -20.179688 6.703125 -18.328125 C 4.835938 -16.460938 3.90625 -14.226562 3.90625 -11.625 C 3.90625 -9 4.835938 -6.753906 6.703125 -4.890625 C 8.554688 -3.035156 10.785156 -2.109375 13.390625 -2.109375 C 16.023438 -2.109375 18.269531 -3.035156 20.125 -4.890625 C 21.988281 -6.753906 22.921875 -9 22.921875 -11.625 Z M 25.296875 -11.625 C 25.296875 -10 24.988281 -8.457031 24.375 -7 C 23.738281 -5.550781 22.890625 -4.296875 21.828125 -3.234375 C 20.742188 -2.140625 19.472656 -1.289062 18.015625 -0.6875 C 16.566406 -0.0507812 15.023438 0.265625 13.390625 0.265625 C 11.765625 0.265625 10.238281 -0.0507812 8.8125 -0.6875 C 7.351562 -1.289062 6.09375 -2.140625 5.03125 -3.234375 C 3.945312 -4.296875 3.097656 -5.550781 2.484375 -7 C 1.847656 -8.457031 1.53125 -10 1.53125 -11.625 C 1.53125 -13.257812 1.847656 -14.800781 2.484375 -16.25 C 3.097656 -17.695312 3.945312 -18.957031 5.03125 -20.03125 C 6.09375 -21.09375 7.351562 -21.941406 8.8125 -22.578125 C 10.238281 -23.191406 11.765625 -23.5 13.390625 -23.5 C 15.023438 -23.5 16.566406 -23.191406 18.015625 -22.578125 C 19.472656 -21.941406 20.742188 -21.09375 21.828125 -20.03125 C 22.890625 -18.957031 23.738281 -17.695312 24.375 -16.25 C 24.988281 -14.800781 25.296875 -13.257812 25.296875 -11.625 Z M 25.296875 -11.625 "/></g></g></g><g fill="#e13939" fill-opacity="1"><g transform="translate(260.921343, 198.374987)"><g><path d="M 23.875 0 L 20.265625 -16.453125 L 13.328125 1.359375 L 6.359375 -16.453125 L 2.78125 0 L 0.34375 0 L 5.75 -24.65625 L 13.328125 -4.859375 L 20.90625 -24.65625 L 26.28125 0 Z M 23.875 0 "/></g></g></g><g fill="#8c52ff" fill-opacity="1"><g transform="translate(235.304096, 211.099995)"><g><path d="M 3.546875 2.375 C 3.492188 2.375 3.460938 2.367188 3.453125 2.359375 C 3.367188 2.316406 3.328125 2.242188 3.328125 2.140625 C 3.328125 2.085938 3.332031 2.054688 3.34375 2.046875 C 3.476562 1.710938 3.59375 1.367188 3.6875 1.015625 C 3.71875 0.828125 3.75 0.640625 3.78125 0.453125 C 3.8125 0.273438 3.847656 0.0976562 3.890625 -0.078125 C 3.960938 -0.421875 4.03125 -0.757812 4.09375 -1.09375 C 4.15625 -1.425781 4.222656 -1.757812 4.296875 -2.09375 C 4.378906 -2.4375 4.457031 -2.773438 4.53125 -3.109375 C 4.601562 -3.441406 4.679688 -3.773438 4.765625 -4.109375 L 4.828125 -4.421875 C 4.828125 -4.484375 4.804688 -4.519531 4.765625 -4.53125 C 4.734375 -4.539062 4.691406 -4.546875 4.640625 -4.546875 L 4.59375 -4.546875 C 4.175781 -4.515625 3.757812 -4.484375 3.34375 -4.453125 C 2.925781 -4.421875 2.507812 -4.382812 2.09375 -4.34375 C 2.03125 -4.34375 1.984375 -4.332031 1.953125 -4.3125 C 1.929688 -4.300781 1.90625 -4.296875 1.875 -4.296875 C 1.84375 -4.296875 1.816406 -4.289062 1.796875 -4.28125 C 1.617188 -4.269531 1.515625 -4.171875 1.484375 -3.984375 C 1.441406 -3.785156 1.398438 -3.585938 1.359375 -3.390625 C 1.316406 -3.203125 1.273438 -3.007812 1.234375 -2.8125 C 1.191406 -2.613281 1.148438 -2.414062 1.109375 -2.21875 C 1.066406 -2.03125 1.019531 -1.832031 0.96875 -1.625 C 0.914062 -1.394531 0.867188 -1.164062 0.828125 -0.9375 C 0.785156 -0.707031 0.742188 -0.472656 0.703125 -0.234375 C 0.679688 -0.148438 0.664062 -0.0664062 0.65625 0.015625 C 0.65625 0.0976562 0.671875 0.179688 0.703125 0.265625 C 0.753906 0.398438 0.757812 0.53125 0.71875 0.65625 C 0.6875 0.78125 0.644531 0.90625 0.59375 1.03125 C 0.550781 1.125 0.488281 1.171875 0.40625 1.171875 C 0.394531 1.171875 0.390625 1.171875 0.390625 1.171875 C 0.390625 1.171875 0.382812 1.171875 0.375 1.171875 C 0.363281 1.160156 0.351562 1.15625 0.34375 1.15625 C 0.226562 1.113281 0.171875 1.046875 0.171875 0.953125 C 0.171875 0.441406 0.21875 -0.0546875 0.3125 -0.546875 C 0.414062 -1.046875 0.523438 -1.539062 0.640625 -2.03125 L 1.046875 -3.921875 C 1.078125 -4.046875 1.039062 -4.109375 0.9375 -4.109375 C 0.882812 -4.109375 0.847656 -4.101562 0.828125 -4.09375 C 0.785156 -4.082031 0.742188 -4.070312 0.703125 -4.0625 C 0.671875 -4.050781 0.632812 -4.039062 0.59375 -4.03125 C 0.550781 -4.019531 0.507812 -4.007812 0.46875 -4 C 0.425781 -3.988281 0.382812 -3.976562 0.34375 -3.96875 C 0.3125 -3.957031 0.253906 -3.953125 0.171875 -3.953125 C 0.0664062 -3.953125 0.0078125 -4.003906 0 -4.109375 C -0.0195312 -4.191406 0.00390625 -4.25 0.078125 -4.28125 C 0.117188 -4.300781 0.15625 -4.320312 0.1875 -4.34375 C 0.226562 -4.363281 0.269531 -4.378906 0.3125 -4.390625 C 0.363281 -4.398438 0.40625 -4.410156 0.4375 -4.421875 C 0.476562 -4.441406 0.519531 -4.457031 0.5625 -4.46875 C 0.6875 -4.519531 0.800781 -4.546875 0.90625 -4.546875 C 1.03125 -4.523438 1.125 -4.570312 1.1875 -4.6875 C 1.238281 -4.769531 1.273438 -4.863281 1.296875 -4.96875 C 1.328125 -5.082031 1.351562 -5.1875 1.375 -5.28125 C 1.488281 -5.738281 1.609375 -6.191406 1.734375 -6.640625 C 1.859375 -7.097656 2 -7.550781 2.15625 -8 C 2.175781 -8.039062 2.191406 -8.078125 2.203125 -8.109375 C 2.222656 -8.140625 2.238281 -8.175781 2.25 -8.21875 C 2.257812 -8.25 2.269531 -8.28125 2.28125 -8.3125 C 2.300781 -8.351562 2.320312 -8.394531 2.34375 -8.4375 C 2.394531 -8.5 2.453125 -8.53125 2.515625 -8.53125 C 2.566406 -8.53125 2.597656 -8.523438 2.609375 -8.515625 C 2.703125 -8.460938 2.734375 -8.382812 2.703125 -8.28125 C 2.691406 -8.257812 2.679688 -8.234375 2.671875 -8.203125 C 2.671875 -8.171875 2.664062 -8.144531 2.65625 -8.125 C 2.644531 -8.09375 2.632812 -8.0625 2.625 -8.03125 C 2.613281 -8 2.601562 -7.972656 2.59375 -7.953125 C 2.425781 -7.484375 2.273438 -7.015625 2.140625 -6.546875 C 2.003906 -6.085938 1.878906 -5.617188 1.765625 -5.140625 L 1.71875 -4.921875 C 1.707031 -4.796875 1.765625 -4.734375 1.890625 -4.734375 C 1.921875 -4.734375 1.945312 -4.738281 1.96875 -4.75 C 1.976562 -4.75 1.988281 -4.75 2 -4.75 C 2.019531 -4.75 2.035156 -4.75 2.046875 -4.75 C 2.265625 -4.769531 2.484375 -4.789062 2.703125 -4.8125 C 2.921875 -4.832031 3.132812 -4.847656 3.34375 -4.859375 C 3.550781 -4.878906 3.765625 -4.894531 3.984375 -4.90625 C 4.203125 -4.925781 4.425781 -4.945312 4.65625 -4.96875 C 4.8125 -5 4.910156 -5.03125 4.953125 -5.0625 C 4.992188 -5.09375 5.035156 -5.179688 5.078125 -5.328125 C 5.296875 -6.128906 5.519531 -6.914062 5.75 -7.6875 C 5.988281 -8.457031 6.265625 -9.226562 6.578125 -10 C 6.597656 -10.0625 6.625 -10.125 6.65625 -10.1875 C 6.6875 -10.25 6.734375 -10.304688 6.796875 -10.359375 C 6.828125 -10.390625 6.875 -10.40625 6.9375 -10.40625 C 7.019531 -10.382812 7.066406 -10.332031 7.078125 -10.25 C 7.097656 -10.1875 7.097656 -10.128906 7.078125 -10.078125 C 7.035156 -9.992188 7.003906 -9.9375 6.984375 -9.90625 C 6.773438 -9.414062 6.585938 -8.925781 6.421875 -8.4375 C 6.253906 -7.945312 6.097656 -7.445312 5.953125 -6.9375 L 5.515625 -5.375 C 5.460938 -5.195312 5.503906 -5.109375 5.640625 -5.109375 L 5.75 -5.109375 C 5.875 -5.128906 6 -5.148438 6.125 -5.171875 C 6.25 -5.191406 6.378906 -5.210938 6.515625 -5.234375 C 6.546875 -5.234375 6.566406 -5.238281 6.578125 -5.25 C 6.585938 -5.25 6.59375 -5.25 6.59375 -5.25 C 6.601562 -5.25 6.613281 -5.25 6.625 -5.25 C 6.75 -5.269531 6.820312 -5.21875 6.84375 -5.09375 C 6.851562 -4.976562 6.816406 -4.90625 6.734375 -4.875 C 6.628906 -4.832031 6.515625 -4.800781 6.390625 -4.78125 C 6.316406 -4.769531 6.25 -4.757812 6.1875 -4.75 C 6.125 -4.75 6.0625 -4.742188 6 -4.734375 C 5.9375 -4.722656 5.875 -4.710938 5.8125 -4.703125 C 5.75 -4.691406 5.679688 -4.679688 5.609375 -4.671875 C 5.410156 -4.660156 5.296875 -4.554688 5.265625 -4.359375 C 5.222656 -4.179688 5.179688 -4.003906 5.140625 -3.828125 C 5.097656 -3.648438 5.054688 -3.472656 5.015625 -3.296875 C 4.960938 -3.117188 4.914062 -2.941406 4.875 -2.765625 C 4.832031 -2.585938 4.789062 -2.40625 4.75 -2.21875 C 4.6875 -1.925781 4.625 -1.628906 4.5625 -1.328125 C 4.5 -1.035156 4.441406 -0.742188 4.390625 -0.453125 C 4.328125 -0.148438 4.265625 0.140625 4.203125 0.421875 C 4.140625 0.710938 4.078125 1.007812 4.015625 1.3125 C 3.992188 1.4375 3.960938 1.5625 3.921875 1.6875 C 3.890625 1.820312 3.851562 1.945312 3.8125 2.0625 C 3.800781 2.082031 3.789062 2.101562 3.78125 2.125 C 3.78125 2.144531 3.773438 2.164062 3.765625 2.1875 C 3.753906 2.207031 3.742188 2.222656 3.734375 2.234375 C 3.722656 2.253906 3.710938 2.273438 3.703125 2.296875 C 3.648438 2.347656 3.597656 2.375 3.546875 2.375 Z M 3.546875 2.375 "/></g></g></g><g fill="#8c52ff" fill-opacity="1"><g transform="translate(241.750587, 211.099995)"><g><path d="M 2.40625 1.71875 C 1.789062 1.71875 1.3125 1.523438 0.96875 1.140625 C 0.625 0.753906 0.375 0.289062 0.21875 -0.25 C 0.132812 -0.539062 0.0703125 -0.828125 0.03125 -1.109375 C 0 -1.398438 -0.0078125 -1.703125 0 -2.015625 C -0.0195312 -2.441406 0.0078125 -2.859375 0.09375 -3.265625 C 0.175781 -3.671875 0.296875 -4.070312 0.453125 -4.46875 C 0.785156 -5.375 1.21875 -6.207031 1.75 -6.96875 C 2.289062 -7.726562 2.910156 -8.4375 3.609375 -9.09375 C 3.898438 -9.351562 4.195312 -9.535156 4.5 -9.640625 C 4.582031 -9.671875 4.644531 -9.691406 4.6875 -9.703125 C 4.738281 -9.710938 4.804688 -9.71875 4.890625 -9.71875 C 4.992188 -9.695312 5.050781 -9.632812 5.0625 -9.53125 C 5.0625 -9.394531 5.015625 -9.328125 4.921875 -9.328125 C 4.597656 -9.296875 4.328125 -9.179688 4.109375 -8.984375 C 3.898438 -8.796875 3.6875 -8.597656 3.46875 -8.390625 C 2.863281 -7.765625 2.332031 -7.097656 1.875 -6.390625 C 1.425781 -5.691406 1.0625 -4.9375 0.78125 -4.125 C 0.570312 -3.519531 0.445312 -2.90625 0.40625 -2.28125 C 0.375 -1.664062 0.445312 -1.046875 0.625 -0.421875 C 0.695312 -0.128906 0.804688 0.144531 0.953125 0.40625 C 1.097656 0.664062 1.28125 0.878906 1.5 1.046875 C 1.726562 1.222656 1.992188 1.3125 2.296875 1.3125 C 2.378906 1.3125 2.46875 1.300781 2.5625 1.28125 C 2.65625 1.269531 2.757812 1.253906 2.875 1.234375 C 3.09375 1.179688 3.304688 1.097656 3.515625 0.984375 C 3.722656 0.867188 3.925781 0.738281 4.125 0.59375 C 4.914062 -0.0625 5.585938 -0.898438 6.140625 -1.921875 C 6.285156 -2.171875 6.414062 -2.425781 6.53125 -2.6875 C 6.65625 -2.945312 6.769531 -3.207031 6.875 -3.46875 C 7.09375 -3.976562 7.257812 -4.484375 7.375 -4.984375 C 7.488281 -5.484375 7.5625 -5.9375 7.59375 -6.34375 C 7.625 -6.707031 7.554688 -7.070312 7.390625 -7.4375 C 7.140625 -8 6.71875 -8.28125 6.125 -8.28125 C 6.050781 -8.28125 5.972656 -8.269531 5.890625 -8.25 C 5.804688 -8.238281 5.707031 -8.222656 5.59375 -8.203125 C 5.34375 -8.140625 5.085938 -7.984375 4.828125 -7.734375 C 4.566406 -7.484375 4.34375 -7.203125 4.15625 -6.890625 C 3.976562 -6.578125 3.875 -6.285156 3.84375 -6.015625 C 3.832031 -5.972656 3.820312 -5.9375 3.8125 -5.90625 C 3.800781 -5.875 3.789062 -5.847656 3.78125 -5.828125 C 3.738281 -5.734375 3.671875 -5.6875 3.578125 -5.6875 C 3.441406 -5.707031 3.382812 -5.78125 3.40625 -5.90625 C 3.425781 -6.050781 3.445312 -6.195312 3.46875 -6.34375 C 3.5 -6.488281 3.546875 -6.628906 3.609375 -6.765625 C 3.773438 -7.097656 3.976562 -7.410156 4.21875 -7.703125 C 4.457031 -7.992188 4.734375 -8.234375 5.046875 -8.421875 C 5.367188 -8.609375 5.71875 -8.703125 6.09375 -8.703125 C 6.15625 -8.703125 6.21875 -8.695312 6.28125 -8.6875 C 6.351562 -8.6875 6.425781 -8.679688 6.5 -8.671875 C 6.738281 -8.628906 6.945312 -8.539062 7.125 -8.40625 C 7.300781 -8.28125 7.457031 -8.125 7.59375 -7.9375 C 7.925781 -7.457031 8.066406 -6.90625 8.015625 -6.28125 C 7.984375 -5.914062 7.929688 -5.546875 7.859375 -5.171875 C 7.785156 -4.804688 7.679688 -4.445312 7.546875 -4.09375 C 7.335938 -3.519531 7.066406 -2.90625 6.734375 -2.25 C 6.410156 -1.59375 6.03125 -0.96875 5.59375 -0.375 C 5.164062 0.21875 4.6875 0.703125 4.15625 1.078125 C 3.625 1.460938 3.039062 1.675781 2.40625 1.71875 Z M 2.40625 1.71875 "/></g></g></g><g fill="#8c52ff" fill-opacity="1"><g transform="translate(250.260585, 211.099995)"><g><path d="M 1.015625 1.21875 C 0.828125 1.21875 0.675781 1.140625 0.5625 0.984375 C 0.300781 0.703125 0.140625 0.375 0.078125 0 C 0.0234375 -0.382812 0 -0.765625 0 -1.140625 C 0.0078125 -1.773438 0.078125 -2.4375 0.203125 -3.125 C 0.328125 -3.8125 0.488281 -4.5 0.6875 -5.1875 C 0.875 -5.863281 1.101562 -6.523438 1.375 -7.171875 C 1.644531 -7.828125 1.921875 -8.429688 2.203125 -8.984375 C 2.210938 -9.015625 2.222656 -9.035156 2.234375 -9.046875 C 2.253906 -9.066406 2.269531 -9.085938 2.28125 -9.109375 C 2.289062 -9.128906 2.300781 -9.144531 2.3125 -9.15625 C 2.332031 -9.175781 2.347656 -9.195312 2.359375 -9.21875 C 2.398438 -9.257812 2.441406 -9.28125 2.484375 -9.28125 C 2.515625 -9.28125 2.535156 -9.273438 2.546875 -9.265625 C 2.609375 -9.234375 2.640625 -9.179688 2.640625 -9.109375 C 2.640625 -8.992188 2.628906 -8.90625 2.609375 -8.84375 C 2.585938 -8.789062 2.5625 -8.738281 2.53125 -8.6875 C 2.488281 -8.601562 2.460938 -8.546875 2.453125 -8.515625 C 2.046875 -7.722656 1.695312 -6.914062 1.40625 -6.09375 C 1.125 -5.28125 0.890625 -4.445312 0.703125 -3.59375 C 0.597656 -3.113281 0.519531 -2.632812 0.46875 -2.15625 C 0.414062 -1.6875 0.398438 -1.210938 0.421875 -0.734375 C 0.421875 -0.609375 0.441406 -0.425781 0.484375 -0.1875 C 0.535156 0.0507812 0.609375 0.269531 0.703125 0.46875 C 0.796875 0.675781 0.910156 0.78125 1.046875 0.78125 C 1.117188 0.78125 1.238281 0.710938 1.40625 0.578125 C 1.71875 0.296875 1.984375 -0.0078125 2.203125 -0.34375 C 2.429688 -0.6875 2.640625 -1.039062 2.828125 -1.40625 C 3.097656 -1.90625 3.363281 -2.398438 3.625 -2.890625 C 3.882812 -3.390625 4.144531 -3.898438 4.40625 -4.421875 C 4.613281 -4.828125 4.816406 -5.191406 5.015625 -5.515625 C 5.222656 -5.847656 5.472656 -6.1875 5.765625 -6.53125 C 5.835938 -6.601562 5.925781 -6.65625 6.03125 -6.6875 C 6.050781 -6.6875 6.066406 -6.691406 6.078125 -6.703125 C 6.085938 -6.703125 6.097656 -6.703125 6.109375 -6.703125 C 6.234375 -6.703125 6.335938 -6.640625 6.421875 -6.515625 C 6.472656 -6.429688 6.5 -6.34375 6.5 -6.25 C 6.507812 -6.164062 6.507812 -6.082031 6.5 -6 C 6.457031 -5.726562 6.40625 -5.460938 6.34375 -5.203125 C 6.289062 -4.953125 6.238281 -4.707031 6.1875 -4.46875 C 6.132812 -4.207031 6.078125 -3.945312 6.015625 -3.6875 C 5.953125 -3.4375 5.894531 -3.179688 5.84375 -2.921875 C 5.789062 -2.660156 5.742188 -2.394531 5.703125 -2.125 C 5.660156 -1.863281 5.628906 -1.59375 5.609375 -1.3125 C 5.554688 -0.96875 5.601562 -0.644531 5.75 -0.34375 C 5.789062 -0.257812 5.832031 -0.21875 5.875 -0.21875 C 5.90625 -0.21875 5.941406 -0.238281 5.984375 -0.28125 C 6.054688 -0.351562 6.125 -0.421875 6.1875 -0.484375 C 6.257812 -0.546875 6.328125 -0.617188 6.390625 -0.703125 C 6.597656 -1.003906 6.816406 -1.332031 7.046875 -1.6875 C 7.285156 -2.039062 7.578125 -2.488281 7.921875 -3.03125 C 7.972656 -3.113281 8.023438 -3.195312 8.078125 -3.28125 C 8.140625 -3.363281 8.210938 -3.441406 8.296875 -3.515625 C 8.335938 -3.546875 8.382812 -3.5625 8.4375 -3.5625 C 8.5 -3.5625 8.546875 -3.539062 8.578125 -3.5 C 8.648438 -3.4375 8.660156 -3.363281 8.609375 -3.28125 C 8.566406 -3.207031 8.523438 -3.132812 8.484375 -3.0625 C 8.441406 -3 8.398438 -2.9375 8.359375 -2.875 C 8.304688 -2.8125 8.253906 -2.75 8.203125 -2.6875 C 8.160156 -2.625 8.117188 -2.5625 8.078125 -2.5 L 6.828125 -0.609375 C 6.742188 -0.492188 6.660156 -0.378906 6.578125 -0.265625 C 6.492188 -0.160156 6.394531 -0.0625 6.28125 0.03125 C 6.144531 0.15625 6.003906 0.21875 5.859375 0.21875 C 5.679688 0.21875 5.539062 0.140625 5.4375 -0.015625 C 5.34375 -0.171875 5.273438 -0.359375 5.234375 -0.578125 C 5.203125 -0.796875 5.1875 -0.984375 5.1875 -1.140625 C 5.207031 -1.441406 5.234375 -1.75 5.265625 -2.0625 C 5.304688 -2.375 5.363281 -2.679688 5.4375 -2.984375 C 5.519531 -3.367188 5.601562 -3.753906 5.6875 -4.140625 C 5.78125 -4.523438 5.867188 -4.910156 5.953125 -5.296875 C 5.960938 -5.347656 5.972656 -5.398438 5.984375 -5.453125 C 5.992188 -5.515625 6.003906 -5.570312 6.015625 -5.625 C 6.023438 -5.6875 6.03125 -5.742188 6.03125 -5.796875 C 6.039062 -5.859375 6.050781 -5.914062 6.0625 -5.96875 C 6.082031 -6.019531 6.066406 -6.054688 6.015625 -6.078125 C 6.003906 -6.085938 5.988281 -6.09375 5.96875 -6.09375 C 5.914062 -6.09375 5.882812 -6.070312 5.875 -6.03125 C 5.84375 -5.988281 5.8125 -5.945312 5.78125 -5.90625 C 5.75 -5.863281 5.707031 -5.820312 5.65625 -5.78125 C 5.582031 -5.675781 5.519531 -5.578125 5.46875 -5.484375 C 5.195312 -5.015625 4.953125 -4.570312 4.734375 -4.15625 L 3.25 -1.28125 C 3.101562 -1 2.945312 -0.726562 2.78125 -0.46875 C 2.625 -0.21875 2.453125 0.0234375 2.265625 0.265625 C 2.171875 0.390625 2.078125 0.503906 1.984375 0.609375 C 1.890625 0.722656 1.78125 0.820312 1.65625 0.90625 C 1.5625 1 1.460938 1.070312 1.359375 1.125 C 1.265625 1.1875 1.148438 1.21875 1.015625 1.21875 Z M 1.015625 1.21875 "/></g></g></g><g fill="#8c52ff" fill-opacity="1"><g transform="translate(258.2587, 211.099995)"><g><path d="M 2.484375 1.828125 C 2.285156 1.828125 2.132812 1.753906 2.03125 1.609375 C 1.832031 1.367188 1.804688 1.109375 1.953125 0.828125 C 2.128906 0.523438 2.378906 0.226562 2.703125 -0.0625 C 3.035156 -0.351562 3.347656 -0.585938 3.640625 -0.765625 C 3.753906 -0.816406 3.859375 -0.875 3.953125 -0.9375 C 4.046875 -1.007812 4.144531 -1.078125 4.25 -1.140625 C 4.351562 -1.191406 4.453125 -1.25 4.546875 -1.3125 C 4.648438 -1.375 4.753906 -1.429688 4.859375 -1.484375 C 5.023438 -1.578125 5.140625 -1.707031 5.203125 -1.875 C 5.273438 -2.050781 5.320312 -2.234375 5.34375 -2.421875 C 5.40625 -3.054688 5.125 -3.382812 4.5 -3.40625 C 4.3125 -3.40625 4.140625 -3.390625 3.984375 -3.359375 C 3.867188 -3.335938 3.742188 -3.3125 3.609375 -3.28125 C 3.484375 -3.25 3.363281 -3.222656 3.25 -3.203125 C 3.125 -3.179688 2.992188 -3.15625 2.859375 -3.125 C 2.734375 -3.09375 2.613281 -3.066406 2.5 -3.046875 C 2.332031 -3.003906 2.164062 -2.96875 2 -2.9375 C 1.832031 -2.90625 1.660156 -2.890625 1.484375 -2.890625 C 1.128906 -2.890625 0.828125 -2.972656 0.578125 -3.140625 C 0.335938 -3.316406 0.171875 -3.582031 0.078125 -3.9375 C 0.00390625 -4.21875 -0.0195312 -4.492188 0 -4.765625 C 0.0078125 -5.046875 0.0507812 -5.320312 0.125 -5.59375 C 0.269531 -6.195312 0.507812 -6.789062 0.84375 -7.375 C 1.175781 -7.96875 1.570312 -8.519531 2.03125 -9.03125 C 2.5 -9.539062 2.988281 -9.960938 3.5 -10.296875 C 3.820312 -10.515625 4.171875 -10.695312 4.546875 -10.84375 C 4.921875 -11 5.300781 -11.078125 5.6875 -11.078125 C 6.125 -11.078125 6.507812 -10.96875 6.84375 -10.75 C 7.175781 -10.53125 7.351562 -10.191406 7.375 -9.734375 C 7.394531 -9.492188 7.375 -9.285156 7.3125 -9.109375 C 7.113281 -8.398438 6.773438 -7.734375 6.296875 -7.109375 C 6.148438 -6.929688 5.972656 -6.757812 5.765625 -6.59375 C 5.554688 -6.4375 5.332031 -6.359375 5.09375 -6.359375 C 5.039062 -6.359375 4.988281 -6.363281 4.9375 -6.375 C 4.882812 -6.394531 4.851562 -6.4375 4.84375 -6.5 C 4.832031 -6.570312 4.863281 -6.640625 4.9375 -6.703125 C 4.957031 -6.722656 4.984375 -6.734375 5.015625 -6.734375 C 5.035156 -6.734375 5.050781 -6.738281 5.0625 -6.75 C 5.289062 -6.789062 5.515625 -6.914062 5.734375 -7.125 C 5.960938 -7.34375 6.171875 -7.601562 6.359375 -7.90625 C 6.546875 -8.207031 6.691406 -8.507812 6.796875 -8.8125 C 6.910156 -9.113281 6.96875 -9.375 6.96875 -9.59375 C 6.96875 -9.976562 6.835938 -10.25 6.578125 -10.40625 C 6.328125 -10.570312 6.035156 -10.65625 5.703125 -10.65625 C 5.398438 -10.65625 5.085938 -10.59375 4.765625 -10.46875 C 4.441406 -10.351562 4.160156 -10.21875 3.921875 -10.0625 C 2.210938 -8.96875 1.078125 -7.429688 0.515625 -5.453125 C 0.460938 -5.242188 0.425781 -5.035156 0.40625 -4.828125 C 0.394531 -4.628906 0.410156 -4.425781 0.453125 -4.21875 C 0.554688 -3.601562 0.890625 -3.296875 1.453125 -3.296875 C 1.492188 -3.296875 1.523438 -3.300781 1.546875 -3.3125 C 1.554688 -3.3125 1.566406 -3.3125 1.578125 -3.3125 C 1.597656 -3.3125 1.613281 -3.3125 1.625 -3.3125 C 1.695312 -3.320312 1.765625 -3.332031 1.828125 -3.34375 C 1.890625 -3.363281 1.953125 -3.378906 2.015625 -3.390625 C 2.078125 -3.398438 2.140625 -3.410156 2.203125 -3.421875 C 2.265625 -3.429688 2.332031 -3.441406 2.40625 -3.453125 C 2.519531 -3.472656 2.632812 -3.5 2.75 -3.53125 C 2.875 -3.5625 3 -3.585938 3.125 -3.609375 C 3.238281 -3.628906 3.351562 -3.65625 3.46875 -3.6875 C 3.582031 -3.71875 3.703125 -3.742188 3.828125 -3.765625 C 3.953125 -3.796875 4.078125 -3.8125 4.203125 -3.8125 C 4.335938 -3.820312 4.472656 -3.828125 4.609375 -3.828125 C 4.984375 -3.804688 5.273438 -3.679688 5.484375 -3.453125 C 5.691406 -3.222656 5.789062 -2.921875 5.78125 -2.546875 C 5.78125 -2.484375 5.769531 -2.40625 5.75 -2.3125 C 5.726562 -2.226562 5.734375 -2.148438 5.765625 -2.078125 L 5.828125 -2.078125 C 5.910156 -2.078125 5.976562 -2.097656 6.03125 -2.140625 C 6.050781 -2.160156 6.078125 -2.175781 6.109375 -2.1875 C 6.140625 -2.207031 6.164062 -2.222656 6.1875 -2.234375 L 8.3125 -3.359375 C 8.34375 -3.367188 8.375 -3.378906 8.40625 -3.390625 C 8.4375 -3.398438 8.46875 -3.410156 8.5 -3.421875 C 8.519531 -3.429688 8.546875 -3.441406 8.578125 -3.453125 C 8.609375 -3.460938 8.632812 -3.472656 8.65625 -3.484375 C 8.664062 -3.492188 8.6875 -3.5 8.71875 -3.5 C 8.769531 -3.5 8.8125 -3.472656 8.84375 -3.421875 C 8.851562 -3.398438 8.859375 -3.378906 8.859375 -3.359375 C 8.867188 -3.335938 8.875 -3.316406 8.875 -3.296875 C 8.875 -3.242188 8.859375 -3.207031 8.828125 -3.1875 C 8.773438 -3.132812 8.71875 -3.09375 8.65625 -3.0625 C 8.625 -3.050781 8.59375 -3.035156 8.5625 -3.015625 C 8.53125 -2.992188 8.5 -2.972656 8.46875 -2.953125 C 8.257812 -2.847656 8.050781 -2.738281 7.84375 -2.625 C 7.632812 -2.519531 7.425781 -2.40625 7.21875 -2.28125 C 6.789062 -2.050781 6.359375 -1.828125 5.921875 -1.609375 C 5.609375 -1.453125 5.382812 -1.222656 5.25 -0.921875 C 5.15625 -0.710938 5.019531 -0.46875 4.84375 -0.1875 C 4.664062 0.0820312 4.460938 0.351562 4.234375 0.625 C 4.003906 0.90625 3.765625 1.144531 3.515625 1.34375 C 3.265625 1.550781 3.023438 1.691406 2.796875 1.765625 C 2.710938 1.804688 2.609375 1.828125 2.484375 1.828125 Z M 2.515625 1.40625 C 2.554688 1.40625 2.582031 1.398438 2.59375 1.390625 C 2.695312 1.347656 2.800781 1.296875 2.90625 1.234375 C 3.25 1.023438 3.582031 0.734375 3.90625 0.359375 C 4.226562 -0.015625 4.460938 -0.414062 4.609375 -0.84375 C 4.378906 -0.71875 4.097656 -0.546875 3.765625 -0.328125 C 3.429688 -0.109375 3.125 0.117188 2.84375 0.359375 C 2.5625 0.609375 2.375 0.851562 2.28125 1.09375 C 2.257812 1.175781 2.285156 1.253906 2.359375 1.328125 C 2.410156 1.378906 2.460938 1.40625 2.515625 1.40625 Z M 2.515625 1.40625 "/></g></g></g><g fill="#8c52ff" fill-opacity="1"><g transform="translate(266.496763, 211.099995)"><g><path d="M 1.375 1.109375 C 1.03125 1.109375 0.734375 1.046875 0.484375 0.921875 C 0.242188 0.796875 0.09375 0.546875 0.03125 0.171875 C 0 -0.00390625 -0.0078125 -0.1875 0 -0.375 C 0.0078125 -0.5625 0.0351562 -0.742188 0.078125 -0.921875 C 0.0976562 -1.046875 0.125 -1.164062 0.15625 -1.28125 C 0.1875 -1.40625 0.210938 -1.523438 0.234375 -1.640625 C 0.253906 -1.765625 0.28125 -1.882812 0.3125 -2 C 0.351562 -2.113281 0.382812 -2.234375 0.40625 -2.359375 C 0.425781 -2.441406 0.425781 -2.492188 0.40625 -2.515625 C 0.394531 -2.535156 0.34375 -2.566406 0.25 -2.609375 C 0.238281 -2.617188 0.21875 -2.628906 0.1875 -2.640625 C 0.164062 -2.648438 0.140625 -2.660156 0.109375 -2.671875 C 0.078125 -2.691406 0.0625 -2.734375 0.0625 -2.796875 C 0.0625 -2.859375 0.078125 -2.894531 0.109375 -2.90625 C 0.171875 -2.976562 0.226562 -3.015625 0.28125 -3.015625 C 0.4375 -3.035156 0.539062 -3.09375 0.59375 -3.1875 C 0.65625 -3.28125 0.703125 -3.390625 0.734375 -3.515625 C 0.878906 -3.992188 1.050781 -4.460938 1.25 -4.921875 C 1.445312 -5.390625 1.65625 -5.863281 1.875 -6.34375 L 2.46875 -7.546875 C 2.488281 -7.597656 2.515625 -7.65625 2.546875 -7.71875 C 2.578125 -7.769531 2.59375 -7.835938 2.59375 -7.921875 C 2.53125 -7.941406 2.476562 -7.953125 2.4375 -7.953125 C 2.414062 -7.953125 2.394531 -7.953125 2.375 -7.953125 C 2.363281 -7.953125 2.34375 -7.953125 2.3125 -7.953125 C 2.28125 -7.941406 2.242188 -7.9375 2.203125 -7.9375 C 2.078125 -7.9375 2.015625 -7.976562 2.015625 -8.0625 C 2.015625 -8.15625 2.066406 -8.21875 2.171875 -8.25 C 2.191406 -8.257812 2.210938 -8.265625 2.234375 -8.265625 C 2.253906 -8.265625 2.273438 -8.269531 2.296875 -8.28125 C 2.328125 -8.289062 2.347656 -8.296875 2.359375 -8.296875 C 2.378906 -8.296875 2.398438 -8.300781 2.421875 -8.3125 C 2.523438 -8.34375 2.625 -8.367188 2.71875 -8.390625 C 2.820312 -8.421875 2.925781 -8.460938 3.03125 -8.515625 C 3.070312 -8.554688 3.117188 -8.578125 3.171875 -8.578125 C 3.472656 -8.578125 3.753906 -8.613281 4.015625 -8.6875 C 4.148438 -8.71875 4.289062 -8.742188 4.4375 -8.765625 C 4.582031 -8.796875 4.722656 -8.820312 4.859375 -8.84375 C 5.035156 -8.863281 5.203125 -8.890625 5.359375 -8.921875 C 5.523438 -8.953125 5.695312 -8.984375 5.875 -9.015625 C 6.21875 -9.066406 6.550781 -9.097656 6.875 -9.109375 L 7.03125 -9.109375 C 7.050781 -9.109375 7.078125 -9.109375 7.109375 -9.109375 C 7.140625 -9.109375 7.171875 -9.109375 7.203125 -9.109375 C 7.222656 -9.109375 7.25 -9.109375 7.28125 -9.109375 C 7.3125 -9.109375 7.335938 -9.101562 7.359375 -9.09375 C 7.492188 -9.070312 7.550781 -8.992188 7.53125 -8.859375 C 7.507812 -8.722656 7.4375 -8.664062 7.3125 -8.6875 C 7.28125 -8.6875 7.25 -8.6875 7.21875 -8.6875 C 7.1875 -8.695312 7.15625 -8.707031 7.125 -8.71875 C 7.082031 -8.726562 7.039062 -8.734375 7 -8.734375 C 6.96875 -8.734375 6.929688 -8.734375 6.890625 -8.734375 L 6.84375 -8.734375 C 6.789062 -8.722656 6.734375 -8.710938 6.671875 -8.703125 C 6.617188 -8.703125 6.566406 -8.703125 6.515625 -8.703125 C 6.460938 -8.703125 6.40625 -8.695312 6.34375 -8.6875 C 6.28125 -8.6875 6.222656 -8.679688 6.171875 -8.671875 L 3.703125 -8.25 C 3.691406 -8.238281 3.675781 -8.234375 3.65625 -8.234375 C 3.632812 -8.234375 3.613281 -8.226562 3.59375 -8.21875 C 3.570312 -8.207031 3.535156 -8.203125 3.484375 -8.203125 C 3.359375 -8.191406 3.257812 -8.148438 3.1875 -8.078125 C 3.113281 -8.015625 3.046875 -7.925781 2.984375 -7.8125 L 2.171875 -6.109375 C 1.992188 -5.710938 1.828125 -5.316406 1.671875 -4.921875 C 1.515625 -4.535156 1.367188 -4.140625 1.234375 -3.734375 C 1.222656 -3.703125 1.210938 -3.664062 1.203125 -3.625 C 1.191406 -3.59375 1.175781 -3.554688 1.15625 -3.515625 C 1.125 -3.429688 1.128906 -3.367188 1.171875 -3.328125 C 1.203125 -3.285156 1.242188 -3.265625 1.296875 -3.265625 C 1.335938 -3.265625 1.390625 -3.273438 1.453125 -3.296875 C 1.472656 -3.304688 1.492188 -3.3125 1.515625 -3.3125 C 1.546875 -3.320312 1.570312 -3.332031 1.59375 -3.34375 C 1.78125 -3.382812 1.96875 -3.425781 2.15625 -3.46875 C 2.351562 -3.519531 2.539062 -3.566406 2.71875 -3.609375 C 2.894531 -3.671875 3.078125 -3.722656 3.265625 -3.765625 C 3.460938 -3.804688 3.65625 -3.847656 3.84375 -3.890625 C 3.851562 -3.898438 3.878906 -3.90625 3.921875 -3.90625 C 3.929688 -3.90625 3.941406 -3.90625 3.953125 -3.90625 C 3.960938 -3.90625 3.972656 -3.90625 3.984375 -3.90625 C 4.085938 -3.90625 4.148438 -3.863281 4.171875 -3.78125 C 4.203125 -3.664062 4.125 -3.566406 3.9375 -3.484375 L 3.6875 -3.4375 C 3.28125 -3.332031 2.875 -3.226562 2.46875 -3.125 C 2.0625 -3.019531 1.65625 -2.921875 1.25 -2.828125 C 1.132812 -2.804688 1.039062 -2.769531 0.96875 -2.71875 C 0.90625 -2.664062 0.863281 -2.582031 0.84375 -2.46875 C 0.8125 -2.3125 0.78125 -2.160156 0.75 -2.015625 C 0.71875 -1.878906 0.6875 -1.734375 0.65625 -1.578125 C 0.613281 -1.429688 0.578125 -1.28125 0.546875 -1.125 C 0.515625 -0.96875 0.484375 -0.816406 0.453125 -0.671875 C 0.441406 -0.628906 0.429688 -0.585938 0.421875 -0.546875 C 0.421875 -0.503906 0.421875 -0.457031 0.421875 -0.40625 C 0.421875 -0.363281 0.421875 -0.316406 0.421875 -0.265625 C 0.421875 -0.210938 0.421875 -0.160156 0.421875 -0.109375 C 0.441406 0.421875 0.71875 0.6875 1.25 0.6875 C 1.488281 0.6875 1.726562 0.65625 1.96875 0.59375 C 2.132812 0.5625 2.300781 0.519531 2.46875 0.46875 C 2.632812 0.425781 2.800781 0.375 2.96875 0.3125 C 3.375 0.164062 3.78125 0.015625 4.1875 -0.140625 C 4.601562 -0.304688 5.015625 -0.46875 5.421875 -0.625 C 5.453125 -0.632812 5.476562 -0.640625 5.5 -0.640625 C 5.53125 -0.648438 5.550781 -0.65625 5.5625 -0.65625 C 5.644531 -0.65625 5.703125 -0.617188 5.734375 -0.546875 C 5.753906 -0.472656 5.757812 -0.425781 5.75 -0.40625 C 5.707031 -0.289062 5.628906 -0.21875 5.515625 -0.1875 C 5.222656 -0.0820312 4.929688 0.0195312 4.640625 0.125 C 4.347656 0.238281 4.0625 0.359375 3.78125 0.484375 C 3.488281 0.585938 3.195312 0.679688 2.90625 0.765625 C 2.613281 0.859375 2.3125 0.945312 2 1.03125 C 1.90625 1.050781 1.804688 1.066406 1.703125 1.078125 C 1.597656 1.085938 1.488281 1.097656 1.375 1.109375 Z M 1.375 1.109375 "/></g></g></g></svg>